<svg xmlns="http://www.w3.org/2000/svg" xmlns:xlink="http://www.w3.org/1999/xlink" width="500" zoomAndPan="magnify" viewBox="0 0 375 374.999991" height="500" preserveAspectRatio="xMidYMid meet" version="1.0"><defs><clipPath id="78a129580d"><path d="M 30 60 L 170.289062 60 L 170.289062 372.75 L 30 372.75 Z M 30 60 " clip-rule="nonzero"/></clipPath><clipPath id="0f3384352e"><path d="M 207.15625 60 L 347 60 L 347 372.75 L 207.15625 372.75 Z M 207.15625 60 " clip-rule="nonzero"/></clipPath></defs><path fill="#100f0d" d="M 30.535156 88.820312 C 30.570312 88.785156 30.601562 88.785156 30.636719 88.820312 C 33.347656 88.917969 35.429688 91.203125 35.332031 93.914062 C 35.265625 95.503906 34.40625 96.960938 33.082031 97.820312 C 32.851562 97.953125 32.585938 98.019531 32.320312 98.019531 C 29.644531 97.917969 27.527344 95.636719 27.625 92.921875 C 27.691406 91.335938 28.550781 89.84375 29.90625 88.984375 C 30.105469 88.851562 30.304688 88.785156 30.535156 88.785156 Z M 30.238281 84.582031 C 29.3125 84.617188 28.386719 84.914062 27.625 85.445312 C 23.359375 88.15625 22.101562 93.78125 24.847656 98.050781 C 26.4375 100.566406 29.214844 102.15625 32.191406 102.253906 C 33.3125 102.289062 34.40625 101.988281 35.363281 101.394531 C 39.628906 98.679688 40.855469 93.023438 38.140625 88.785156 C 36.523438 86.269531 33.777344 84.683594 30.800781 84.582031 C 30.601562 84.550781 30.4375 84.550781 30.238281 84.582031 " fill-opacity="1" fill-rule="nonzero"/><path fill="#100f0d" d="M 45.253906 69.460938 C 45.351562 69.425781 45.449219 69.425781 45.515625 69.460938 C 49.484375 69.59375 52.59375 72.902344 52.460938 76.875 C 52.363281 79.253906 51.136719 81.40625 49.15625 82.699219 C 48.691406 82.960938 48.128906 83.128906 47.601562 83.09375 C 43.632812 82.960938 40.554688 79.621094 40.6875 75.648438 C 40.789062 73.300781 42.011719 71.113281 44.027344 69.859375 C 44.390625 69.625 44.820312 69.460938 45.253906 69.460938 Z M 45.714844 65.226562 C 44.292969 65.160156 42.902344 65.554688 41.746094 66.316406 C 36.421875 69.691406 34.867188 76.773438 38.273438 82.070312 C 40.292969 85.210938 43.699219 87.199219 47.433594 87.332031 C 48.855469 87.394531 50.246094 87 51.4375 86.238281 C 56.726562 82.828125 58.28125 75.78125 54.875 70.453125 C 52.859375 67.308594 49.417969 65.355469 45.714844 65.226562 " fill-opacity="1" fill-rule="nonzero"/><path fill="#100f0d" d="M 65.160156 49.40625 C 65.292969 49.40625 65.457031 49.40625 65.621094 49.40625 C 71.144531 49.605469 75.476562 54.269531 75.246094 59.796875 C 75.148438 63.105469 73.425781 66.117188 70.648438 67.90625 C 69.890625 68.367188 68.996094 68.601562 68.101562 68.601562 C 62.582031 68.367188 58.25 63.703125 58.480469 58.175781 C 58.578125 54.898438 60.296875 51.886719 63.078125 50.101562 C 63.703125 49.703125 64.398438 49.472656 65.160156 49.40625 Z M 65.753906 45.171875 C 64.003906 45.105469 62.28125 45.566406 60.792969 46.527344 C 54.148438 50.761719 52.230469 59.597656 56.460938 66.25 C 58.976562 70.1875 63.273438 72.636719 67.9375 72.835938 C 69.722656 72.902344 71.441406 72.40625 72.929688 71.480469 C 79.578125 67.210938 81.496094 58.375 77.261719 51.757812 C 74.75 47.785156 70.449219 45.335938 65.753906 45.171875 " fill-opacity="1" fill-rule="nonzero"/><path fill="#100f0d" d="M 96.773438 28.65625 C 97.4375 28.65625 98.097656 28.757812 98.691406 28.957031 C 105.867188 31.171875 109.871094 38.816406 107.621094 46 C 106.296875 50.265625 102.957031 53.609375 98.691406 54.933594 C 97.4375 55.328125 96.078125 55.328125 94.824219 54.933594 C 87.648438 52.683594 83.644531 45.039062 85.894531 37.890625 C 87.21875 33.621094 90.558594 30.28125 94.824219 28.957031 C 95.453125 28.757812 96.113281 28.65625 96.773438 28.65625 Z M 96.808594 24.421875 C 95.683594 24.421875 94.589844 24.585938 93.535156 24.917969 C 84.140625 27.863281 78.917969 37.890625 81.859375 47.289062 C 83.613281 52.847656 87.945312 57.214844 93.535156 58.96875 C 95.617188 59.632812 97.898438 59.632812 99.980469 58.96875 C 109.375 56.023438 114.597656 46 111.65625 36.601562 C 109.902344 31.039062 105.570312 26.671875 99.980469 24.917969 C 98.957031 24.585938 97.898438 24.421875 96.808594 24.421875 " fill-opacity="1" fill-rule="nonzero"/><path fill="#100f0d" d="M 139.632812 4.234375 C 140.855469 4.234375 142.078125 4.433594 143.238281 4.796875 C 155.242188 8.570312 161.921875 21.34375 158.152344 33.355469 C 155.9375 40.503906 150.347656 46.097656 143.238281 48.316406 C 140.855469 49.042969 138.34375 49.042969 135.960938 48.316406 C 123.992188 44.542969 117.277344 31.769531 121.046875 19.757812 C 123.261719 12.609375 128.851562 7.046875 135.960938 4.796875 C 137.183594 4.433594 138.410156 4.234375 139.632812 4.234375 Z M 139.632812 0 C 137.980469 0 136.324219 0.230469 134.738281 0.761719 C 120.484375 5.195312 112.546875 20.351562 116.980469 34.613281 C 119.625 43.085938 126.273438 49.703125 134.738281 52.351562 C 137.914062 53.34375 141.285156 53.34375 144.460938 52.351562 C 158.714844 47.882812 166.648438 32.726562 162.21875 18.5 C 159.574219 10.027344 152.925781 3.410156 144.460938 0.761719 C 142.90625 0.265625 141.285156 0 139.632812 0 " fill-opacity="1" fill-rule="nonzero"/><g clip-path="url(#78a129580d)"><path fill="#100f0d" d="M 127.859375 64.464844 C 135.5 64.597656 142.808594 67.804688 148.066406 73.429688 C 157.226562 83.160156 163.242188 95.4375 165.292969 108.675781 C 167.707031 124.292969 163.972656 140.246094 154.910156 153.183594 C 141.816406 171.8125 132.753906 192.960938 128.289062 215.296875 C 125.113281 235.648438 128.191406 256.464844 137.085938 274.996094 C 155.902344 305.273438 146.578125 345.050781 116.351562 363.847656 C 115.855469 364.113281 115.390625 364.410156 114.929688 364.707031 C 107.222656 369.210938 97.832031 369.835938 89.597656 366.394531 C 65.324219 356.203125 50.578125 331.320312 53.289062 305.144531 C 59.007812 272.613281 58.015625 239.289062 50.410156 207.191406 C 38.242188 183.199219 33.117188 156.261719 35.597656 129.488281 C 36.15625 123.730469 38.441406 118.269531 42.144531 113.871094 C 62.480469 89.648438 90.0625 72.605469 120.78125 65.257812 C 123.097656 64.695312 125.445312 64.429688 127.859375 64.464844 Z M 127.894531 60.226562 C 125.179688 60.195312 122.4375 60.492188 119.789062 61.121094 C 88.175781 68.699219 59.800781 86.238281 38.902344 111.15625 C 34.636719 116.21875 32.023438 122.472656 31.394531 129.09375 C 28.851562 156.492188 34.042969 184.089844 46.410156 208.679688 C 53.785156 240.117188 54.675781 272.746094 49.054688 304.546875 C 46.078125 332.640625 61.917969 359.378906 87.945312 370.300781 C 97.4375 374.273438 108.214844 373.542969 117.078125 368.347656 C 149.816406 349.15625 160.796875 307.027344 141.617188 274.269531 C 141.351562 273.835938 141.085938 273.40625 140.824219 272.976562 C 132.355469 255.273438 129.445312 235.417969 132.457031 216.058594 C 136.820312 194.316406 145.652344 173.734375 158.382812 155.597656 C 168.105469 141.765625 172.074219 124.691406 169.492188 108.011719 C 167.277344 93.949219 160.894531 80.878906 151.140625 70.519531 C 145.089844 64.066406 136.722656 60.359375 127.894531 60.226562 " fill-opacity="1" fill-rule="nonzero"/></g><path fill="#100f0d" d="M 346.910156 88.820312 C 346.875 88.785156 346.84375 88.785156 346.808594 88.820312 C 344.097656 88.917969 342.015625 91.203125 342.113281 93.914062 C 342.179688 95.503906 343.039062 96.960938 344.363281 97.820312 C 344.59375 97.953125 344.859375 98.019531 345.125 98.019531 C 347.800781 97.917969 349.917969 95.636719 349.820312 92.921875 C 349.753906 91.335938 348.894531 89.84375 347.539062 88.984375 C 347.339844 88.851562 347.140625 88.785156 346.910156 88.785156 Z M 347.207031 84.582031 C 348.132812 84.617188 349.058594 84.914062 349.820312 85.445312 C 354.085938 88.15625 355.339844 93.78125 352.597656 98.050781 C 351.007812 100.566406 348.230469 102.15625 345.253906 102.253906 C 344.132812 102.289062 343.039062 101.988281 342.082031 101.394531 C 337.816406 98.679688 336.589844 93.023438 339.304688 88.785156 C 340.921875 86.269531 343.667969 84.683594 346.644531 84.582031 C 346.84375 84.550781 347.007812 84.550781 347.207031 84.582031 " fill-opacity="1" fill-rule="nonzero"/><path fill="#100f0d" d="M 332.191406 69.460938 C 332.09375 69.425781 331.996094 69.425781 331.929688 69.460938 C 327.960938 69.59375 324.851562 72.902344 324.984375 76.875 C 325.082031 79.253906 326.304688 81.40625 328.289062 82.699219 C 328.753906 82.960938 329.316406 83.128906 329.84375 83.09375 C 333.8125 82.960938 336.890625 79.621094 336.757812 75.648438 C 336.65625 73.300781 335.433594 71.113281 333.417969 69.859375 C 333.054688 69.625 332.621094 69.460938 332.191406 69.460938 Z M 331.730469 65.226562 C 333.152344 65.160156 334.539062 65.554688 335.699219 66.316406 C 341.023438 69.691406 342.578125 76.773438 339.171875 82.070312 C 337.152344 85.210938 333.746094 87.199219 330.011719 87.332031 C 328.589844 87.394531 327.199219 87 326.007812 86.238281 C 320.71875 82.828125 319.164062 75.78125 322.570312 70.453125 C 324.585938 67.308594 328.027344 65.355469 331.730469 65.226562 " fill-opacity="1" fill-rule="nonzero"/><path fill="#100f0d" d="M 312.285156 49.40625 C 312.152344 49.40625 311.988281 49.40625 311.820312 49.40625 C 306.300781 49.605469 301.96875 54.269531 302.199219 59.796875 C 302.296875 63.105469 304.019531 66.117188 306.796875 67.90625 C 307.554688 68.367188 308.449219 68.601562 309.34375 68.601562 C 314.863281 68.367188 319.195312 63.703125 318.964844 58.175781 C 318.867188 54.898438 317.144531 51.886719 314.367188 50.101562 C 313.738281 49.703125 313.046875 49.472656 312.285156 49.40625 Z M 311.691406 45.171875 C 313.441406 45.105469 315.164062 45.566406 316.648438 46.527344 C 323.296875 50.761719 325.214844 59.597656 320.984375 66.25 C 318.46875 70.1875 314.171875 72.636719 309.507812 72.835938 C 307.722656 72.902344 306.003906 72.40625 304.515625 71.480469 C 297.867188 67.210938 295.949219 58.375 300.183594 51.757812 C 302.695312 47.785156 306.992188 45.335938 311.691406 45.171875 " fill-opacity="1" fill-rule="nonzero"/><path fill="#100f0d" d="M 280.671875 28.65625 C 280.007812 28.65625 279.347656 28.757812 278.753906 28.957031 C 271.578125 31.171875 267.574219 38.816406 269.824219 46 C 271.148438 50.265625 274.488281 53.609375 278.753906 54.933594 C 280.007812 55.328125 281.363281 55.328125 282.621094 54.933594 C 289.796875 52.683594 293.800781 45.039062 291.550781 37.890625 C 290.226562 33.621094 286.886719 30.28125 282.621094 28.957031 C 281.992188 28.757812 281.332031 28.65625 280.671875 28.65625 Z M 280.636719 24.421875 C 281.761719 24.421875 282.851562 24.585938 283.910156 24.917969 C 293.304688 27.863281 298.527344 37.890625 295.585938 47.289062 C 293.832031 52.847656 289.5 57.214844 283.910156 58.96875 C 281.828125 59.632812 279.546875 59.632812 277.464844 58.96875 C 268.070312 56.023438 262.847656 46 265.789062 36.601562 C 267.542969 31.039062 271.875 26.671875 277.464844 24.917969 C 278.488281 24.585938 279.546875 24.421875 280.636719 24.421875 " fill-opacity="1" fill-rule="nonzero"/><path fill="#100f0d" d="M 237.8125 4.234375 C 236.589844 4.234375 235.367188 4.433594 234.207031 4.796875 C 222.203125 8.570312 215.523438 21.34375 219.292969 33.355469 C 221.507812 40.503906 227.097656 46.097656 234.207031 48.316406 C 236.589844 49.042969 239.101562 49.042969 241.484375 48.316406 C 253.453125 44.542969 260.167969 31.769531 256.398438 19.757812 C 254.183594 12.609375 248.59375 7.046875 241.484375 4.796875 C 240.261719 4.433594 239.035156 4.234375 237.8125 4.234375 Z M 237.8125 0 C 239.464844 0 241.121094 0.230469 242.707031 0.761719 C 256.960938 5.195312 264.898438 20.351562 260.464844 34.613281 C 257.820312 43.085938 251.171875 49.703125 242.707031 52.351562 C 239.53125 53.34375 236.160156 53.34375 232.984375 52.351562 C 218.730469 47.882812 210.796875 32.726562 215.226562 18.5 C 217.871094 10.027344 224.519531 3.410156 232.984375 0.761719 C 234.539062 0.265625 236.160156 0 237.8125 0 " fill-opacity="1" fill-rule="nonzero"/><g clip-path="url(#0f3384352e)"><path fill="#100f0d" d="M 249.585938 64.464844 C 241.945312 64.597656 234.636719 67.804688 229.378906 73.429688 C 220.21875 83.160156 214.199219 95.4375 212.152344 108.675781 C 209.738281 124.292969 213.472656 140.246094 222.535156 153.183594 C 235.628906 171.8125 244.691406 192.960938 249.15625 215.296875 C 252.332031 235.648438 249.253906 256.464844 240.359375 274.996094 C 221.542969 305.273438 230.867188 345.050781 261.09375 363.847656 C 261.589844 364.113281 262.050781 364.410156 262.515625 364.707031 C 270.222656 369.210938 279.613281 369.835938 287.847656 366.394531 C 312.121094 356.203125 326.867188 331.320312 324.15625 305.144531 C 318.4375 272.613281 319.429688 239.289062 327.035156 207.191406 C 339.203125 183.199219 344.328125 156.261719 341.847656 129.488281 C 341.285156 123.730469 339.003906 118.269531 335.300781 113.871094 C 314.964844 89.648438 287.382812 72.605469 256.664062 65.257812 C 254.347656 64.695312 252 64.429688 249.585938 64.464844 Z M 249.550781 60.226562 C 252.265625 60.195312 255.007812 60.492188 257.65625 61.121094 C 289.269531 68.699219 317.640625 86.238281 338.542969 111.15625 C 342.808594 116.21875 345.421875 122.472656 346.050781 129.09375 C 348.59375 156.492188 343.402344 184.089844 331.035156 208.679688 C 323.660156 240.117188 322.769531 272.746094 328.390625 304.546875 C 331.367188 332.640625 315.527344 359.378906 289.5 370.300781 C 280.007812 374.273438 269.230469 373.542969 260.367188 368.347656 C 227.628906 349.15625 216.648438 307.027344 235.828125 274.269531 C 236.09375 273.835938 236.359375 273.40625 236.621094 272.976562 C 245.089844 255.273438 248 235.417969 244.988281 216.058594 C 240.625 194.316406 231.792969 173.734375 219.0625 155.597656 C 209.339844 141.765625 205.371094 124.691406 207.949219 108.011719 C 210.167969 93.949219 216.550781 80.878906 226.304688 70.519531 C 232.355469 64.066406 240.722656 60.359375 249.550781 60.226562 " fill-opacity="1" fill-rule="nonzero"/></g></svg>