<svg xmlns="http://www.w3.org/2000/svg" xmlns:xlink="http://www.w3.org/1999/xlink" width="500" zoomAndPan="magnify" viewBox="0 0 375 374.999991" height="500" preserveAspectRatio="xMidYMid meet" version="1.0"><defs><clipPath id="310c23e124"><path d="M 82.5 0 L 292.5 0 L 292.5 375 L 82.5 375 Z M 82.5 0 " clip-rule="nonzero"/></clipPath></defs><g clip-path="url(#310c23e124)"><path fill="#0157b8" d="M 221.8125 375 C 217.988281 375 213.789062 374.550781 209.210938 373.5 C 189.335938 368.851562 173.585938 353.851562 162.5625 328.949219 C 153.261719 308.023438 148.539062 282.898438 145.460938 263.324219 C 141.636719 239.398438 136.6875 226.5 129.113281 206.925781 C 124.386719 194.625 118.539062 179.398438 111.5625 157.574219 C 106.539062 141.75 107.585938 126.824219 114.710938 113.25 C 129.789062 84.226562 167.210938 71.476562 170.960938 70.273438 C 181.011719 66.449219 195.488281 64.726562 208.988281 65.773438 C 221.4375 66.75 238.6875 70.574219 250.386719 83.101562 C 264.039062 97.648438 268.539062 111.074219 265.238281 126.449219 C 262.164062 140.476562 252.636719 155.25 240.636719 173.925781 C 222.9375 201.449219 227.960938 216.148438 233.8125 233.25 C 235.011719 236.773438 236.289062 240.449219 237.261719 244.199219 C 240.039062 254.324219 245.664062 264.898438 251.0625 275.101562 C 258.261719 288.675781 265.761719 302.773438 267.1875 316.800781 C 268.3125 328.351562 264.414062 351.601562 248.960938 365.175781 C 243.335938 369.898438 234.488281 375 221.8125 375 Z M 175.835938 84.300781 C 175.6875 84.375 158.585938 89.851562 144.039062 101.550781 C 125.886719 116.101562 119.8125 133.351562 125.960938 152.925781 C 132.710938 174.300781 138.261719 188.699219 143.210938 201.449219 C 150.789062 221.175781 156.261719 235.425781 160.3125 260.925781 C 163.3125 279.601562 167.8125 303.449219 176.363281 322.800781 C 185.511719 343.5 197.363281 355.273438 212.664062 358.800781 C 223.460938 361.351562 232.386719 359.625 239.136719 353.699219 C 249.636719 344.476562 253.238281 327 252.335938 318.074219 C 251.210938 306.976562 244.761719 294.75 237.9375 281.925781 C 232.085938 270.976562 226.085938 259.648438 222.863281 247.949219 C 221.960938 244.648438 220.835938 241.351562 219.636719 237.898438 C 213.488281 219.75 206.4375 199.199219 228.113281 165.601562 C 253.164062 126.675781 259.539062 114.523438 239.585938 93.148438 C 224.4375 76.949219 190.386719 78.75 176.363281 84.226562 C 176.136719 84.226562 175.988281 84.300781 175.835938 84.300781 Z M 173.511719 77.175781 Z M 259.914062 74.550781 C 242.0625 74.550781 227.511719 57.824219 227.511719 37.273438 C 227.511719 16.726562 242.0625 0 259.914062 0 C 277.761719 0 292.3125 16.726562 292.3125 37.273438 C 292.3125 57.824219 277.761719 74.550781 259.914062 74.550781 Z M 259.914062 15 C 250.3125 15 242.511719 24.976562 242.511719 37.273438 C 242.511719 49.574219 250.3125 59.550781 259.914062 59.550781 C 269.511719 59.550781 277.3125 49.574219 277.3125 37.273438 C 277.3125 24.976562 269.511719 15 259.914062 15 Z M 204.488281 57.824219 C 192.863281 57.824219 183.789062 46.273438 183.789062 31.574219 C 183.789062 16.875 192.863281 5.324219 204.488281 5.324219 C 216.113281 5.324219 225.1875 16.875 225.1875 31.574219 C 225.1875 46.273438 216.113281 57.824219 204.488281 57.824219 Z M 204.488281 20.324219 C 202.238281 20.324219 198.789062 24.824219 198.789062 31.574219 C 198.789062 38.324219 202.238281 42.824219 204.488281 42.824219 C 206.738281 42.824219 210.1875 38.324219 210.1875 31.574219 C 210.1875 24.824219 206.738281 20.324219 204.488281 20.324219 Z M 163.613281 68.25 C 152.585938 68.25 144.039062 57.449219 144.039062 43.574219 C 144.039062 29.699219 152.664062 18.898438 163.613281 18.898438 C 174.5625 18.898438 183.1875 29.773438 183.1875 43.574219 C 183.1875 57.375 174.5625 68.25 163.613281 68.25 Z M 163.613281 33.898438 C 161.960938 33.898438 159.039062 37.574219 159.039062 43.574219 C 159.039062 49.574219 162.039062 53.25 163.613281 53.25 C 165.1875 53.25 168.1875 49.574219 168.1875 43.574219 C 168.1875 37.574219 165.1875 33.898438 163.613281 33.898438 Z M 126.5625 83.175781 C 116.4375 83.175781 108.5625 73.351562 108.5625 60.75 C 108.5625 48.148438 116.4375 38.25 126.5625 38.25 C 136.6875 38.25 144.5625 48.074219 144.5625 60.675781 C 144.5625 73.273438 136.6875 83.175781 126.5625 83.175781 Z M 126.5625 53.25 C 125.960938 53.25 123.5625 55.726562 123.5625 60.675781 C 123.5625 65.625 126.039062 68.101562 126.5625 68.101562 C 127.085938 68.101562 129.5625 65.625 129.5625 60.675781 C 129.5625 55.726562 127.164062 53.25 126.5625 53.25 Z M 99.335938 112.875 C 89.960938 112.875 82.6875 103.875 82.6875 92.324219 C 82.6875 80.773438 90.039062 71.773438 99.335938 71.773438 C 108.636719 71.773438 115.988281 80.773438 115.988281 92.324219 C 115.988281 103.875 108.710938 112.875 99.335938 112.875 Z M 99.335938 87 C 98.664062 87.675781 97.6875 89.550781 97.6875 92.324219 C 97.6875 95.101562 98.738281 96.976562 99.335938 97.648438 C 100.011719 96.976562 100.988281 95.101562 100.988281 92.324219 C 100.988281 89.550781 100.011719 87.675781 99.335938 87 Z M 99.335938 87 " fill-opacity="1" fill-rule="nonzero"/></g></svg>